HIERARCHY
ROOT root
{
	OFFSET 0.000000 0.000000 0.000000
	CHANNELS 6 Xposition Yposition Zposition Zrotation Yrotation Xrotation
	JOINT lhip
	{
		OFFSET 0.058581 -0.082280 -0.017664
		CHANNELS 3 Zrotation Yrotation Xrotation
		JOINT lknee
		{
			OFFSET 0.043451 -0.386469 0.008037
			CHANNELS 3 Zrotation Yrotation Xrotation
			JOINT lankle
			{
				OFFSET -0.014790 -0.426874 -0.037428
				CHANNELS 3 Zrotation Yrotation Xrotation
				JOINT ltoe
				{
					OFFSET 0.041054 -0.060286 0.122042
					CHANNELS 3 Zrotation Yrotation Xrotation
					End Site
					{
						OFFSET 0.000000 0.000000 0.000000
					}
				}
			}
		}
	}
	JOINT rhip
	{
		OFFSET -0.060310 -0.090513 -0.013543
		CHANNELS 3 Zrotation Yrotation Xrotation
		JOINT rknee
		{
			OFFSET -0.043257 -0.383688 -0.004843
			CHANNELS 3 Zrotation Yrotation Xrotation
			JOINT rankle
			{
				OFFSET 0.019056 -0.420046 -0.034562
				CHANNELS 3 Zrotation Yrotation Xrotation
				JOINT rtoe
				{
					OFFSET -0.034840 -0.062106 0.130323
					CHANNELS 3 Zrotation Yrotation Xrotation
					End Site
					{
						OFFSET 0.000000 0.000000 0.000000
					}
				}
			}
		}
	}
	JOINT lowerback
	{
		OFFSET 0.004439 0.124404 -0.038385
		CHANNELS 3 Zrotation Yrotation Xrotation
		JOINT upperback
		{
			OFFSET 0.004488 0.137956 0.026820
			CHANNELS 3 Zrotation Yrotation Xrotation
			JOINT chest
			{
				OFFSET -0.002265 0.056032 0.002855
				CHANNELS 3 Zrotation Yrotation Xrotation
				JOINT lowerneck
				{
					OFFSET -0.013390 0.211636 -0.033468
					CHANNELS 3 Zrotation Yrotation Xrotation
					JOINT upperneck
					{
						OFFSET 0.010113 0.088937 0.050410
						CHANNELS 3 Zrotation Yrotation Xrotation
						End Site
						{
							OFFSET 0.000000 0.000000 0.000000
						}
					}
				}
				JOINT lclavicle
				{
					OFFSET 0.071702 0.114000 -0.018898
					CHANNELS 3 Zrotation Yrotation Xrotation
					JOINT lshoulder
					{
						OFFSET 0.122921 0.045205 -0.019046
						CHANNELS 3 Zrotation Yrotation Xrotation
						JOINT lelbow
						{
							OFFSET 0.255332 -0.015649 -0.022946
							CHANNELS 3 Zrotation Yrotation Xrotation
							JOINT lwrist
							{
								OFFSET 0.265709 0.012698 -0.007375
								CHANNELS 3 Zrotation Yrotation Xrotation
								End Site
								{
									OFFSET 0.000000 0.000000 0.000000
								}
							}
						}
					}
				}
				JOINT rclavicle
				{
					OFFSET -0.082954 0.112472 -0.023707
					CHANNELS 3 Zrotation Yrotation Xrotation
					JOINT rshoulder
					{
						OFFSET -0.113228 0.046853 -0.008472
						CHANNELS 3 Zrotation Yrotation Xrotation
						JOINT relbow
						{
							OFFSET -0.260127 -0.014369 -0.031269
							CHANNELS 3 Zrotation Yrotation Xrotation
							JOINT rwrist
							{
								OFFSET -0.269108 0.006794 -0.006027
								CHANNELS 3 Zrotation Yrotation Xrotation
								End Site
								{
									OFFSET 0.000000 0.000000 0.000000
								}
							}
						}
					}
				}
			}
		}
	}
}
MOTION
Frames: 14
Frame Time: 0.033333
-0.016654 0.325497 0.966390 68.215277 0.751907 78.742114 3.588676 11.164700 -5.030973 -1.984596 6.676104 35.921112 -2.371576 15.980965 -20.425599 0.000000 -0.000000 0.000000 -1.087705 0.406874 -12.342938 -0.435098 9.541023 36.044444 6.615528 -7.445664 -12.872910 0.000000 -0.000000 0.000000 -0.503721 -2.017317 26.020134 -0.943562 -9.130809 5.087002 3.431412 -1.043801 -0.123073 -8.313860 -4.301842 6.137249 10.318555 4.348125 -13.926105 19.379826 -45.364266 -25.938754 16.503634 -31.256472 -22.020472 39.637000 -57.245988 -59.478537 34.887234 -13.171617 -35.159111 -26.449107 39.365834 -25.254400 -10.299412 30.234915 -22.767036 -45.749752 50.070316 -53.746911 -39.298663 6.440173 -10.511586 
-0.016031 0.326576 0.965731 68.332648 0.638755 78.871117 3.476800 11.319307 -5.306028 -2.201812 6.307969 36.210563 -2.398644 16.230304 -20.537028 0.000000 -0.000000 0.000000 -1.254594 0.298961 -12.535844 -0.195571 9.830366 36.287176 6.788128 -7.908518 -12.981127 0.000000 -0.000000 0.000000 -0.461175 -2.114106 26.288157 -0.848875 -9.224012 4.446404 3.550909 -1.017402 0.252884 -8.533422 -4.571789 6.779594 10.346910 4.435876 -14.431883 21.101442 -44.661267 -27.259882 18.890246 -31.087399 -23.386558 36.253670 -55.705369 -57.831523 34.829320 -12.934898 -35.728868 -28.130404 38.563756 -26.464224 -12.078024 29.494384 -23.508224 -43.180501 48.349936 -52.682233 -38.947592 6.121727 -11.071542 
-0.015480 0.326918 0.964754 68.607314 0.506292 78.781182 3.373683 11.471139 -5.370965 -2.464930 5.726870 36.536205 -2.486918 16.511876 -20.693491 0.000000 -0.000000 0.000000 -1.378564 0.265380 -12.526271 -0.015419 10.061070 36.747169 6.918332 -8.475663 -13.171841 0.000000 -0.000000 0.000000 -0.336078 -2.287455 26.688566 -0.805956 -9.211594 3.974985 3.465935 -1.102812 0.624844 -8.699343 -4.875465 7.153614 10.393580 4.303469 -14.644968 22.493861 -44.182947 -28.024678 21.137394 -30.619813 -24.636070 33.721023 -54.337243 -56.721403 34.815617 -12.998903 -36.462886 -29.532507 37.932564 -27.412398 -13.401758 28.963393 -24.239244 -41.361618 46.730975 -52.232131 -38.686160 6.032664 -11.321996 
-0.015314 0.326694 0.963617 69.066329 0.393944 78.787080 3.254803 11.417079 -5.556100 -2.618428 5.381208 36.827391 -2.502286 16.651325 -20.736050 0.000000 -0.000000 0.000000 -1.508780 0.342608 -12.485894 0.100197 10.128403 36.907280 6.870488 -9.006129 -13.699064 0.000000 -0.000000 0.000000 -0.259110 -2.373798 26.885637 -0.772127 -9.280542 3.889437 3.406650 -1.116180 0.633666 -8.724452 -4.991827 7.747729 10.442907 4.381594 -14.901088 23.212048 -44.197536 -28.525519 23.014424 -30.418209 -25.422973 32.114584 -53.217303 -56.161543 34.660285 -12.991534 -36.455444 -30.246745 37.718908 -27.947259 -14.291995 28.322367 -24.517274 -40.574536 45.569970 -51.803294 -38.620034 6.342907 -11.109690 
-0.014961 0.325856 0.962723 69.682577 0.286629 78.681332 3.132950 11.320971 -5.559985 -2.649619 4.988540 37.089949 -2.612904 16.602889 -20.940126 0.000000 -0.000000 0.000000 -1.600930 0.126123 -12.437324 -0.047335 9.898412 37.362447 6.868182 -9.013383 -14.033075 0.000000 -0.000000 0.000000 -0.195527 -2.383359 27.019530 -0.749113 -9.427563 3.985530 3.527144 -1.152750 0.671828 -9.022107 -5.088156 8.317171 10.408090 4.425746 -15.242890 23.861450 -43.952244 -29.304352 23.052428 -30.607710 -25.891113 31.936017 -53.048268 -55.727077 34.143325 -12.464727 -36.436947 -30.725956 37.471942 -28.279364 -14.500390 28.277490 -24.942159 -40.451610 44.954592 -51.556133 -38.747272 6.352782 -10.753321 
-0.015056 0.324323 0.961497 70.188765 0.173726 78.586117 3.075107 11.329501 -5.658614 -2.746871 4.590650 37.447961 -2.464810 16.527100 -20.909266 0.000000 -0.000000 0.000000 -1.640765 -0.119669 -12.493750 -0.015854 9.793368 38.019276 6.659314 -9.392501 -14.175397 0.000000 -0.000000 0.000000 -0.109177 -2.377329 27.197658 -0.711602 -9.359416 3.819599 3.404808 -1.150874 0.859048 -9.045977 -5.203917 8.430894 10.283238 4.358893 -15.020620 23.678348 -44.161258 -29.124095 23.560516 -30.717897 -26.111403 32.160106 -52.950140 -55.775284 34.351064 -12.830720 -36.425484 -30.520327 37.621421 -28.074663 -14.741740 27.970383 -25.148388 -40.864757 45.009167 -51.741486 -38.661206 6.565273 -10.540586 
-0.015185 0.322377 0.960287 70.728775 0.032217 78.512866 3.046915 11.120200 -5.754380 -2.756753 4.587350 37.774440 -2.438629 16.341613 -20.983806 0.000000 -0.000000 0.000000 -1.724496 -0.124159 -12.482838 -0.100386 9.539849 38.361502 6.567373 -9.480285 -14.651213 0.000000 -0.000000 0.000000 -0.114698 -2.195141 27.261430 -0.643864 -9.336566 3.939182 3.511819 -1.139927 0.810234 -9.326945 -5.212750 8.760561 10.205672 4.369023 -15.356599 23.319650 -44.342405 -28.809682 22.972933 -30.759842 -26.085299 33.358338 -53.643422 -56.498804 34.203016 -12.415352 -36.342770 -30.183365 37.763562 -27.717013 -14.361588 27.961069 -25.061574 -42.123908 45.609802 -52.395186 -38.478545 6.488875 -10.151253 
-0.016070 0.320123 0.959024 71.382830 -0.130494 78.495699 2.905011 10.881665 -6.070527 -2.687978 4.402514 38.201969 -2.351826 16.158347 -21.016748 0.000000 -0.000000 0.000000 -1.824971 -0.401302 -12.723372 -0.156583 9.192709 39.159758 6.366787 -9.605974 -14.693608 0.000000 -0.000000 0.000000 -0.145438 -2.053687 27.248331 -0.611745 -9.323105 4.094120 3.467686 -1.156379 0.811570 -9.311140 -5.021565 8.728176 10.035136 4.322660 -15.275405 22.750422 -44.521985 -28.196267 22.162369 -30.845740 -25.520880 35.130676 -54.475250 -57.283627 34.459409 -12.361894 -36.208272 -29.450126 37.973514 -27.184608 -13.758283 28.132179 -24.830735 -43.592918 46.382150 -53.126849 -38.487099 6.714631 -10.066634 
-0.016838 0.317211 0.957730 72.045438 -0.270668 78.428024 2.873544 10.628564 -6.272666 -2.699149 4.201617 38.655433 -2.183852 15.831463 -20.972449 0.000000 -0.000000 0.000000 -1.929565 -0.600346 -12.767767 -0.160247 8.874932 39.681837 6.274777 -9.775554 -14.981814 0.000000 -0.000000 0.000000 -0.060074 -2.029246 27.239076 -0.617113 -9.190921 4.348970 3.336955 -1.178602 0.829156 -9.481730 -4.863749 8.227496 9.564432 4.459908 -14.980854 21.950744 -44.182947 -27.560945 20.595690 -31.420561 -24.859737 37.398364 -55.553742 -58.247109 35.109532 -12.076941 -37.003026 -28.757327 37.917935 -26.677028 -12.695338 28.821880 -24.432751 -45.270240 47.361590 -53.823462 -38.598351 6.816902 -9.921495 
-0.017650 0.313566 0.956459 72.713240 -0.430417 78.387857 2.882698 10.443072 -6.462108 -2.657241 4.146206 38.981199 -2.125396 15.422237 -21.004858 0.000000 -0.000000 0.000000 -1.996351 -0.791410 -12.853479 -0.411068 8.342677 40.131765 6.110415 -9.673937 -15.284615 0.000000 -0.000000 0.000000 -0.011856 -1.960365 27.189422 -0.724032 -8.951961 4.338898 3.173601 -1.054068 0.906963 -9.456119 -4.612799 7.990873 9.159104 4.726924 -14.377139 20.806190 -44.115860 -26.713923 18.309119 -32.382830 -23.646092 40.736965 -56.948779 -59.974637 35.980919 -11.564157 -37.401510 -27.528345 38.067970 -25.881781 -11.244373 29.592966 -23.752397 -47.171798 48.645397 -54.493727 -38.363680 6.716254 -9.369715 
-0.018498 0.309683 0.955345 73.600201 -0.630412 78.328842 2.783097 10.047194 -6.639488 -2.592177 4.085548 39.252322 -1.939742 14.948557 -20.900379 0.000000 -0.000000 0.000000 -2.149197 -1.067615 -12.882127 -0.573576 7.833830 40.570547 5.886955 -9.690796 -15.608653 0.000000 -0.000000 0.000000 0.114747 -1.867062 27.085512 -0.844447 -8.674328 4.319490 2.882870 -1.059636 1.080136 -9.304138 -4.013390 7.428261 8.569023 5.236431 -13.467626 18.938639 -44.108431 -25.347481 16.132353 -33.626924 -22.372697 44.463893 -58.477164 -61.981374 36.630860 -10.898519 -37.819728 -25.586544 38.133630 -24.798907 -9.801931 30.856976 -22.932454 -49.286851 50.231265 -55.335798 -38.670700 7.243084 -9.279859 
-0.019186 0.305198 0.954275 74.590900 -0.884366 78.263153 2.703238 9.656871 -6.796240 -2.582434 4.039481 39.548465 -1.788327 14.345730 -20.896455 0.000000 -0.000000 0.000000 -2.339064 -1.241992 -12.843679 -0.879426 7.080374 41.007621 5.669303 -9.614087 -16.023761 0.000000 -0.000000 0.000000 0.128580 -1.756812 26.932998 -0.955817 -8.355788 4.562270 2.685870 -1.019922 0.903105 -9.118894 -3.179258 6.800050 7.661208 6.109826 -12.745277 16.608220 -43.922687 -23.974375 13.076982 -35.095270 -20.554054 49.059672 -60.284531 -63.308694 37.377869 -10.200514 -37.174582 -23.407883 38.289327 -23.339164 -7.899517 32.215092 -21.822682 -52.499413 51.931866 -56.325578 -38.625923 7.153379 -9.006375 
-0.020169 0.300083 0.952851 75.719111 -1.036643 78.088228 2.724834 9.255266 -6.916582 -2.371932 4.006672 39.946615 -1.782201 13.545126 -20.954043 0.000000 -0.000000 0.000000 -2.426729 -1.490480 -12.723648 -1.200633 6.275526 41.523196 5.378574 -9.546275 -16.494723 0.000000 -0.000000 0.000000 0.422425 -1.792663 26.833808 -1.164980 -7.973833 4.841919 2.301788 -0.922990 0.778391 -8.906136 -2.103947 5.974045 6.675740 7.206210 -11.916535 13.629027 -44.026877 -22.128507 10.338474 -36.028535 -18.850824 54.222538 -61.952560 -66.104296 37.298018 -10.562900 -35.971691 -20.923475 38.587714 -21.737199 -6.060479 33.468117 -20.708850 -55.971793 53.896285 -57.790332 -38.778115 7.910616 -7.261982 
-0.021430 0.294636 0.951103 77.033467 -1.306514 78.034978 2.474107 8.790590 -7.265224 -2.191799 3.807622 40.366517 -1.487460 12.876217 -20.891089 0.000000 -0.000000 0.000000 -2.710823 -1.850683 -12.893260 -1.431758 5.416288 42.320200 5.174284 -9.421072 -17.107772 0.000000 -0.000000 0.000000 0.594123 -1.781465 26.635444 -1.368372 -7.574551 5.201192 1.945688 -0.889794 0.625702 -8.458119 -0.775210 4.853129 5.520760 8.532927 -11.256979 10.282878 -43.703206 -20.251143 7.575894 -36.879870 -16.799156 59.564392 -63.773769 -68.816292 37.158048 -10.768813 -35.203134 -18.031155 38.870563 -19.728382 -4.663456 34.827741 -19.644201 -59.816213 56.079457 -59.359171 -38.854432 8.679327 -5.791591 
